<svg width="25" height="34" viewBox="0 0 25 34" fill="none" xmlns="http://www.w3.org/2000/svg">
<path fill-rule="evenodd" clip-rule="evenodd" d="M4.8726 20.038L1.00614 24.4014L8.95287 31.3832C12.94 34.8863 19.0335 34.5071 22.5516 30.5369C25.8709 26.7912 25.7196 21.1787 22.3432 17.6142L19.9161 15.4277L19.1731 14.7749L19.1813 14.7658L17.9311 13.6393L17.9089 13.6643L13.7549 10.0146L6.84924 17.8076L4.38095 15.6389C1.05839 12.7197 0.740897 7.66364 3.67267 4.35511C6.60444 1.04678 11.6823 0.730646 15.0051 3.64985L21.6273 9.46814L18.836 12.6181L20.0864 13.7446L23.9541 9.3799L16.0072 2.39813C12.02 -1.10496 5.92657 -0.725802 2.4084 3.24447C-1.10976 7.21454 -0.728751 13.2819 3.25841 16.785L5.78691 19.0064L5.77751 19.0168L7.03647 20.1337L7.05117 20.1171L11.2051 23.7667L18.1108 15.9738L20.5791 18.1424C23.9019 21.0616 24.2191 26.1177 21.2874 29.4262C18.3556 32.7346 13.2777 33.0507 9.95518 30.1315L3.33271 24.3132L6.13156 21.1549L4.8726 20.038ZM16.8465 14.8631L11.0034 21.457L8.1135 18.9182L13.9568 12.3243L16.8465 14.8631Z" fill="#FFF"/>
</svg>
