<svg width="17" height="26" viewBox="0 0 17 26" fill="none" xmlns="http://www.w3.org/2000/svg">
<path d="M5.63184 21.6309C5.63184 23.3339 7.01257 24.7147 8.71566 24.7147C10.4188 24.7147 11.7995 23.3339 11.7995 21.6309" stroke="white" stroke-width="2" stroke-linecap="square" stroke-linejoin="round"/>
<path d="M6.7341 2.71666C3.31378 3.59649 0.786639 6.70027 0.786639 10.3995V14.14C0.786639 15.1141 0.703974 16.6909 0.602563 17.6543L0.438461 19.2115C0.38745 19.6961 0.743305 20.0888 1.22855 20.0888H16.2047C16.6921 20.0888 17.0458 19.6952 16.9948 19.2115L16.8307 17.6543C16.729 16.6875 16.6466 15.1132 16.6466 14.14V10.3995C16.6466 6.70318 14.12 3.59689 10.6992 2.71666V2.46805C10.6992 1.37588 9.81166 0.484375 8.71671 0.484375C7.62392 0.484375 6.73426 1.37249 6.73426 2.46805L6.7341 2.71666Z" fill="white"/>
</svg>
